<svg xmlns="http://www.w3.org/2000/svg" viewBox="0 0 306.39 90.83"><defs><style>.cls-1{fill:#231f20;}.cls-2{fill:#fff;}.cls-3{fill:#ee3124;}</style></defs><title>adobe_logo</title><g id="Layer_2" data-name="Layer 2"><rect class="cls-1" width="306.39" height="90.83"/></g><g id="Layer_1" data-name="Layer 1"><path class="cls-2" d="M183.5,122.56l-2.93,14.73h-10.8L183.24,76h13.23l12.24,61.29H197.86L195,122.56ZM194,113.93l-2.25-13.29c-.64-3.83-1.46-9.8-2.09-13.94h-.24c-.67,4.17-1.58,10.32-2.26,14l-2.41,13.26Z" transform="translate(-64 -62)"/><path class="cls-2" d="M244.38,74.37v50.22c0,4,.21,8.89.37,12.71h-9.58l-.63-5.11h-.23A10.66,10.66,0,0,1,225,138c-9.17,0-13.71-10.09-13.71-22.82,0-15.51,6.77-23.06,14.17-23.06a7.85,7.85,0,0,1,7.62,4.61h.18V74.37Zm-11.09,35.54a14.92,14.92,0,0,0-.16-2.64c-.43-3-2-5.75-4.64-5.75-4.46,0-6.09,6.41-6.09,13.89,0,8.61,2.34,13.51,5.93,13.51,1.65,0,3.55-.85,4.59-4.46a9.05,9.05,0,0,0,.38-2.81Z" transform="translate(-64 -62)"/><path class="cls-2" d="M267.26,138c-10.21,0-16.63-8.19-16.63-22.82,0-16,8.22-23.06,16.88-23.06,10.08,0,16.4,8.58,16.4,22.81,0,18.28-9.9,23.07-16.56,23.07Zm.21-8.48c4.23,0,5.28-7.95,5.28-14.52,0-6.26-1-14.4-5.46-14.4-4.68,0-5.67,8.15-5.67,14.4,0,7.54,1.24,14.52,5.76,14.52Z" transform="translate(-64 -62)"/><path class="cls-2" d="M290.11,74.37h11.09V97.53h.18c2.18-3.42,5.09-5.38,9.32-5.38,8.36,0,12.55,9.47,12.55,21.84,0,15.64-6.26,24-14.36,24-3.88,0-6.45-1.72-8.76-6h-.23l-.63,5.32h-9.51c.16-3.7.37-8.72.37-12.71Zm11.09,47.07a9,9,0,0,0,.44,2.84c1.11,3.72,3,4.64,4.51,4.64,4.27,0,6-5.42,6-14.08,0-7.87-1.83-13.31-6.07-13.31-2.1,0-3.87,2.28-4.47,4.72a11.66,11.66,0,0,0-.42,2.8Z" transform="translate(-64 -62)"/><path class="cls-2" d="M338.63,118.66c.13,8,4.38,10.64,9.62,10.64a23.34,23.34,0,0,0,8.32-1.53l1.49,8a32.47,32.47,0,0,1-11.82,2.06c-11.9,0-18.4-8.1-18.4-21.93,0-14.85,7.54-23.77,17.38-23.77,9.5,0,14.78,7.87,14.78,20.76a40.17,40.17,0,0,1-.32,5.88Zm11.17-7.81c.06-6.23-1.77-10.61-5.29-10.61-4,0-5.72,5.86-5.85,10.61Z" transform="translate(-64 -62)"/><polygon class="cls-3" points="60.46 12.37 87.53 12.37 87.53 76.95 60.46 12.37"/><polygon class="cls-3" points="41.39 12.37 14.3 12.37 14.3 76.95 41.39 12.37"/><polygon class="cls-3" points="50.93 36.17 68.17 76.95 56.87 76.95 51.71 63.96 39.09 63.96 50.93 36.17"/></g></svg>