<svg id="Layer_1" data-name="Layer 1" xmlns="http://www.w3.org/2000/svg" viewBox="0 0 117.47 155.8"><defs><style>.cls-1{fill:#fff;}</style></defs><title>if</title><path class="cls-1" d="M52.45,107.19c0-8.46,0-9.55-5.86-13.45l-2-1.3c-.87-.87-.87-3.25.22-3.91,5-1.74,17.36-7.38,22.35-10.63a2,2,0,0,1,2.17,1.3c-.43,7.59-.87,18-.87,26.91v39.06c0,15.62.43,17.79,8.25,18.88l4.56.65c1.52,1.08,1.08,4.77-.43,5.42-6.51-.43-12.8-.65-20.4-.65-7.81,0-14.32.22-20.4.65-1.52-.65-2-4.34-.43-5.42L44.2,164c8-1.08,8.25-3.25,8.25-18.88Zm18-61.84c0,7.81-5.43,11.28-11.5,11.28A10.66,10.66,0,0,1,47.89,45.78c0-7.16,5.21-11.72,11.72-11.72S70.46,39.27,70.46,45.35Z" transform="translate(-38.7 -14.32)"/><path class="cls-1" d="M108.86,93.09c-3.69,0-3.69.43-3.69,6.29v45.79c0,15.62.43,18.23,8.25,18.88l7.81.65c1.52,1.08,1.08,4.77-.43,5.42-9.77-.43-16.06-.65-23.65-.65-7.81,0-14.32.22-20.83.65-1.52-.65-2-4.34-.43-5.42l5-.65c8-1.08,8.25-3.25,8.25-18.88V99.38c0-5.86,0-6.29-4.34-6.29H77.18A3,3,0,0,1,76.53,89l9.33-4.56c1.74-.87,3.25-2.17,3.25-4.34,0-12.59,1.52-26,6.73-38.19,5.42-12.37,17.58-27.56,39.06-27.56,11.5,0,21.27,5.21,21.27,13,0,4.34-4.12,7.81-8.25,7.81-2.39,0-3.69-.87-5.21-2.6-4.12-4.77-10.2-9.55-17.36-9.55-6.73,0-12.15,4.12-15.41,11.93-3.91,10-4.77,25.82-4.77,36.67V77.9c0,5.86,0,6.08,3.69,6.08H133.6c2.39,2.17.87,8.25-1.52,9.11Z" transform="translate(-38.7 -14.32)"/></svg>